<?xml version="1.0" encoding="UTF-8" standalone="no"?>
<!DOCTYPE svg PUBLIC "-//W3C//DTD SVG 1.1//EN" "http://www.w3.org/Graphics/SVG/1.1/DTD/svg11.dtd">
<svg width="100%" height="100%" viewBox="0 0 480 480" version="1.1" xmlns="http://www.w3.org/2000/svg" xmlns:xlink="http://www.w3.org/1999/xlink" xml:space="preserve" xmlns:serif="http://www.serif.com/" style="fill-rule:evenodd;clip-rule:evenodd;stroke-linejoin:round;stroke-miterlimit:2;">
    <rect id="DarootsColour-Icon" serif:id="DarootsColour Icon" x="-0" y="0" width="480" height="480" style="fill:none;"/>
    <path d="M41.04,402.887C39.599,402.049 38.293,401.12 37.143,400.116C33.34,396.793 31.189,392.647 31.189,388.215C31.189,383.783 33.34,379.637 37.143,376.314C42.259,371.845 50.485,368.854 59.791,368.854C69.098,368.854 77.324,371.845 82.44,376.314C86.243,379.637 88.394,383.783 88.394,388.215C88.394,392.647 86.243,396.793 82.44,400.116C79.759,402.458 76.223,403.477 72.125,404.79C82.101,405.723 91.53,404.493 98.256,402.819L163.13,79.366C220.088,77.318 271.773,79.366 310.371,79.366C502.721,79.366 479.443,405.225 270.118,405.225C218.889,405.225 159.534,406.738 101.312,406.8L101.305,406.802C90.146,410.234 72.125,412.174 50.971,406.645C48.082,406.018 41.632,403.251 41.04,402.887ZM141.412,328.286C215.56,262.609 291.168,283.215 368.512,313.413L396.755,162.867C342.999,210.312 283.17,237.833 189.402,165.109L141.412,328.286ZM59.791,373.348C52.113,373.348 43.898,377.031 39.677,380.719C37.256,382.834 35.729,385.393 35.729,388.215C35.729,391.036 37.256,393.596 39.677,395.711C43.898,399.398 52.113,403.082 59.791,403.082C67.47,403.082 75.685,399.398 79.906,395.711C82.327,393.596 83.854,391.036 83.854,388.215C83.854,385.393 82.327,382.834 79.906,380.719C75.685,377.031 67.47,373.348 59.791,373.348Z" style="fill:rgb(243,233,220);"/>
    <path d="M59.791,378.113C64.941,378.113 69.482,379.698 72.312,382.01C74.623,383.897 75.878,386.281 75.878,388.798C75.878,391.315 74.623,393.699 72.312,395.586C69.482,397.898 64.941,399.483 59.791,399.483C54.642,399.483 50.101,397.898 47.271,395.586C44.96,393.699 43.705,391.315 43.705,388.798C43.705,386.281 44.96,383.897 47.271,382.01C50.101,379.698 54.642,378.113 59.791,378.113ZM59.791,383.589C56.153,383.589 52.899,384.568 50.899,386.202C49.987,386.946 49.341,387.805 49.341,388.798C49.341,389.791 49.987,390.65 50.899,391.394C52.899,393.028 56.153,394.007 59.791,394.007C63.43,394.007 66.684,393.028 68.684,391.394C69.596,390.65 70.242,389.791 70.242,388.798C70.242,387.805 69.596,386.946 68.684,386.202C66.684,384.568 63.43,383.589 59.791,383.589Z" style="fill:rgb(243,233,220);"/>
    <path d="M151.027,79.649C126.314,198.476 107.921,290.608 90.679,374.994C69.618,357.862 47.158,362.156 33.791,372.151C60.889,252.923 84.143,143.611 97.54,79.198C100.548,64.731 153.266,68.883 151.027,79.649Z" style="fill:rgb(243,233,220);"/>
</svg>
