<?xml version="1.0" encoding="UTF-8" standalone="no"?>
<!DOCTYPE svg PUBLIC "-//W3C//DTD SVG 1.1//EN" "http://www.w3.org/Graphics/SVG/1.1/DTD/svg11.dtd">
<svg width="100%" height="100%" viewBox="0 0 480 480" version="1.1" xmlns="http://www.w3.org/2000/svg" xmlns:xlink="http://www.w3.org/1999/xlink" xml:space="preserve" xmlns:serif="http://www.serif.com/" style="fill-rule:evenodd;clip-rule:evenodd;stroke-linejoin:round;stroke-miterlimit:2;">
    <rect id="Daroots-Icon-Black" serif:id="Daroots Icon Black" x="-0" y="0" width="480" height="480" style="fill:none;"/>
    <path d="M44.539,402.887C43.098,402.049 41.791,401.12 40.642,400.116C36.839,396.793 34.688,392.647 34.688,388.215C34.688,383.783 36.839,379.637 40.642,376.314C45.757,371.845 53.984,368.854 63.29,368.854C72.596,368.854 80.823,371.845 85.939,376.314C89.742,379.637 91.892,383.783 91.892,388.215C91.892,392.647 89.742,396.793 85.939,400.116C83.258,402.458 79.722,403.477 75.624,404.79C85.6,405.723 95.029,404.493 101.755,402.819L166.629,79.366C223.586,77.318 275.272,79.366 313.87,79.366C506.22,79.366 482.942,405.225 273.617,405.225C222.388,405.225 163.033,406.738 104.811,406.8L104.804,406.802C93.645,410.234 75.624,412.174 54.47,406.645C51.58,406.018 45.131,403.251 44.539,402.887ZM144.911,328.286C219.059,262.609 294.666,283.215 372.011,313.413L400.253,162.867C346.497,210.312 286.669,237.833 192.901,165.109L144.911,328.286ZM63.29,373.348C55.612,373.348 47.396,377.031 43.176,380.719C40.754,382.834 39.228,385.393 39.228,388.215C39.228,391.036 40.754,393.596 43.176,395.711C47.396,399.398 55.612,403.082 63.29,403.082C70.969,403.082 79.184,399.398 83.405,395.711C85.826,393.596 87.353,391.036 87.353,388.215C87.353,385.393 85.826,382.834 83.405,380.719C79.184,377.031 70.969,373.348 63.29,373.348Z"/>
    <path d="M63.29,378.113C68.44,378.113 72.981,379.698 75.811,382.01C78.122,383.897 79.377,386.281 79.377,388.798C79.377,391.315 78.122,393.699 75.811,395.586C72.981,397.898 68.44,399.483 63.29,399.483C58.141,399.483 53.6,397.898 50.769,395.586C48.459,393.699 47.204,391.315 47.204,388.798C47.204,386.281 48.459,383.897 50.769,382.01C53.6,379.698 58.141,378.113 63.29,378.113ZM63.29,383.589C59.652,383.589 56.398,384.568 54.397,386.202C53.486,386.946 52.84,387.805 52.84,388.798C52.84,389.791 53.486,390.65 54.397,391.394C56.398,393.028 59.652,394.007 63.29,394.007C66.929,394.007 70.183,393.028 72.183,391.394C73.094,390.65 73.74,389.791 73.74,388.798C73.74,387.805 73.094,386.946 72.183,386.202C70.183,384.568 66.929,383.589 63.29,383.589Z"/>
    <path d="M154.526,79.649C129.813,198.476 111.42,290.608 94.177,374.994C73.117,357.862 50.656,362.156 37.29,372.151C64.387,252.923 87.642,143.611 101.038,79.198C104.047,64.731 156.765,68.883 154.526,79.649Z"/>
</svg>
