<?xml version="1.0" encoding="UTF-8" standalone="no"?>
<!DOCTYPE svg PUBLIC "-//W3C//DTD SVG 1.1//EN" "http://www.w3.org/Graphics/SVG/1.1/DTD/svg11.dtd">
<svg width="100%" height="100%" viewBox="0 0 720 720" version="1.1" xmlns="http://www.w3.org/2000/svg" xmlns:xlink="http://www.w3.org/1999/xlink" xml:space="preserve" xmlns:serif="http://www.serif.com/" style="fill-rule:evenodd;clip-rule:evenodd;stroke-linejoin:round;stroke-miterlimit:2;">
    <rect id="Daroots-white" serif:id="Daroots white" x="0" y="0" width="720" height="720" style="fill:none;"/>
    <clipPath id="_clip1">
        <rect x="0" y="0" width="720" height="720"/>
    </clipPath>
    <g clip-path="url(#_clip1)">
        <rect x="-41.103" y="-48.266" width="788.952" height="816.533" style="fill:none;"/>
        <g>
            <path d="M57.135,434.081L70.334,434.081L70.334,449.249C71.925,444.479 74.804,440.711 78.969,437.945C83.135,435.178 87.885,433.509 93.221,432.937C98.556,432.364 104.103,432.961 109.859,434.725C115.616,436.49 120.905,439.471 125.726,443.668C130.546,447.866 134.501,453.327 137.59,460.052C140.679,466.777 142.224,474.862 142.224,484.306C142.224,493.559 140.75,501.477 137.801,508.059C134.852,514.641 130.757,520.007 125.515,524.156C120.273,528.306 114.095,531.335 106.981,533.242C99.867,535.15 92.144,536.104 83.813,536.104C79.695,536.104 75.482,535.866 71.176,535.389C66.87,534.912 62.611,534.626 58.399,534.53L57.135,534.53L57.135,533.242C57.323,533.242 57.603,533.099 57.978,532.813C58.352,532.527 58.703,532.002 59.031,531.239C59.359,530.476 59.663,529.355 59.944,527.877C60.224,526.398 60.365,524.514 60.365,522.225L60.365,446.387C60.365,444.002 60.224,442.094 59.944,440.664C59.663,439.233 59.359,438.136 59.031,437.372C58.703,436.609 58.352,436.085 57.978,435.798C57.603,435.512 57.323,435.369 57.135,435.369L57.135,434.081ZM132.395,484.306C132.395,474.48 130.874,466.181 127.832,459.408C124.79,452.635 120.952,447.317 116.318,443.454C111.685,439.59 106.7,437.086 101.365,435.942C96.029,434.797 91.044,434.868 86.411,436.156C81.777,437.444 77.939,439.877 74.897,443.454C71.855,447.031 70.334,451.634 70.334,457.262L70.334,533.958C72.674,534.149 74.967,534.339 77.214,534.53C79.461,534.721 81.66,534.816 83.813,534.816C91.489,534.816 98.322,533.648 104.313,531.311C110.304,528.974 115.382,525.635 119.548,521.294C123.713,516.954 126.896,511.66 129.096,505.412C131.295,499.163 132.395,492.128 132.395,484.306Z" style="fill-rule:nonzero;"/>
            <path d="M201.196,515.786C200.166,512.638 198.786,509.561 197.054,506.556C195.322,503.551 193.286,500.857 190.946,498.472C188.606,496.087 185.985,494.107 183.083,492.533C180.181,490.959 176.999,489.982 173.535,489.6C172.225,489.505 170.868,489.529 169.463,489.672C168.059,489.815 166.702,490.125 165.392,490.602C164.081,491.079 162.888,491.746 161.811,492.605C160.735,493.464 159.962,494.608 159.494,496.039L152.614,516.93C150.742,522.368 149.829,526.446 149.876,529.164C149.923,531.883 150.883,533.242 152.755,533.242L152.755,534.53L140.82,534.53L140.82,533.242C141.381,533.242 142.037,532.98 142.786,532.455C143.534,531.931 144.353,531.025 145.243,529.737C146.132,528.449 147.091,526.732 148.121,524.586C149.151,522.439 150.227,519.744 151.351,516.501L176.344,441.951L173.676,434.081L184.347,434.081L211.165,513.782C212.101,516.453 213.014,518.981 213.903,521.366C214.793,523.751 215.635,525.826 216.431,527.59C217.226,529.355 217.952,530.738 218.607,531.74C219.262,532.742 219.871,533.242 220.432,533.242L220.432,534.53L204.004,534.53L204.004,533.242C204.472,533.242 204.636,531.907 204.496,529.236C204.355,526.565 203.63,523.226 202.319,519.22L201.196,515.786ZM161.039,491.746C162.63,490.22 164.596,489.242 166.936,488.813C169.276,488.384 171.476,488.265 173.535,488.455C178.871,488.932 183.551,490.745 187.576,493.893C191.601,497.041 194.971,500.809 197.686,505.197L177.046,443.955L161.039,491.746Z" style="fill-rule:nonzero;"/>
            <path d="M291.761,514.355C293.258,517.026 294.686,519.506 296.043,521.795C297.4,524.085 298.641,526.088 299.764,527.805C300.887,529.522 301.847,530.858 302.642,531.812C303.438,532.765 304.117,533.242 304.678,533.242L304.678,534.53L288.25,534.53L288.25,533.242C288.812,533.242 288.578,531.764 287.548,528.807C286.519,525.849 284.693,522.081 282.072,517.503L260.73,479.87L244.864,479.87L244.864,522.225C244.864,524.514 244.981,526.398 245.215,527.877C245.449,529.355 245.753,530.476 246.127,531.239C246.502,532.002 246.876,532.527 247.251,532.813C247.625,533.099 247.906,533.242 248.093,533.242L248.093,534.53L231.665,534.53L231.665,533.242C231.852,533.242 232.133,533.099 232.508,532.813C232.882,532.527 233.233,532.002 233.561,531.239C233.888,530.476 234.193,529.355 234.473,527.877C234.754,526.398 234.895,524.514 234.895,522.225L234.895,446.387C234.895,444.002 234.754,442.094 234.473,440.664C234.193,439.233 233.888,438.136 233.561,437.372C233.233,436.609 232.882,436.085 232.508,435.798C232.133,435.512 231.852,435.369 231.665,435.369L231.665,434.081L232.929,434.081C237.141,433.986 241.494,433.7 245.987,433.223C250.48,432.746 254.786,432.507 258.905,432.507C266.019,432.507 272.01,433.104 276.877,434.296C281.745,435.488 285.676,437.134 288.672,439.233C291.667,441.331 293.82,443.835 295.131,446.745C296.441,449.654 297.096,452.826 297.096,456.26C297.096,459.122 296.652,461.793 295.762,464.273C294.873,466.754 293.422,468.995 291.41,470.999C289.397,473.002 286.776,474.695 283.547,476.078C280.317,477.461 276.409,478.487 271.822,479.155L291.761,514.355ZM244.864,434.511L244.864,478.725L258.905,478.725C261.994,478.725 265.2,478.391 268.523,477.724C271.846,477.056 274.888,475.864 277.649,474.146C280.411,472.429 282.704,470.116 284.53,467.207C286.355,464.297 287.268,460.648 287.268,456.26C287.268,451.872 286.355,448.223 284.53,445.314C282.704,442.404 280.411,440.091 277.649,438.374C274.888,436.657 271.846,435.441 268.523,434.725C265.2,434.01 261.994,433.652 258.905,433.652C256.752,433.652 254.482,433.748 252.095,433.938C249.708,434.129 247.297,434.32 244.864,434.511Z" style="fill-rule:nonzero;"/>
            <path d="M305.661,497.327C303.883,490.554 303.485,483.829 304.468,477.151C305.451,470.474 307.533,464.321 310.716,458.693C313.899,453.065 318.064,448.176 323.213,444.026C328.361,439.877 334.258,436.896 340.904,435.083C347.55,433.271 354.15,432.841 360.702,433.795C367.255,434.749 373.292,436.848 378.815,440.091C384.338,443.335 389.135,447.603 393.207,452.898C397.279,458.192 400.204,464.226 401.983,470.999C403.761,477.771 404.182,484.473 403.246,491.103C402.31,497.732 400.251,503.861 397.068,509.49C393.886,515.118 389.697,520.03 384.502,524.228C379.306,528.425 373.386,531.43 366.74,533.242C360.094,535.055 353.518,535.484 347.012,534.53C340.506,533.576 334.492,531.454 328.969,528.163C323.447,524.872 318.626,520.603 314.507,515.356C310.388,510.11 307.44,504.1 305.661,497.327ZM392.014,473.717C390.609,468.184 388.293,462.795 385.063,457.548C381.834,452.301 377.996,447.818 373.55,444.098C369.103,440.377 364.119,437.73 358.596,436.156C353.073,434.582 347.316,434.606 341.325,436.228C335.241,437.849 330.21,440.759 326.231,444.956C322.253,449.154 319.234,453.995 317.175,459.48C315.116,464.965 313.992,470.808 313.805,477.008C313.618,483.209 314.226,489.075 315.63,494.608C317.128,500.141 319.468,505.507 322.651,510.706C325.834,515.905 329.671,520.364 334.165,524.085C338.658,527.805 343.642,530.476 349.118,532.098C354.594,533.719 360.374,533.672 366.459,531.955C372.45,530.333 377.434,527.423 381.413,523.226C385.391,519.029 388.41,514.188 390.469,508.703C392.528,503.217 393.675,497.399 393.909,491.246C394.143,485.093 393.511,479.25 392.014,473.717Z" style="fill-rule:nonzero;"/>
            <path d="M413.917,497.327C412.139,490.554 411.741,483.829 412.724,477.151C413.707,470.474 415.79,464.321 418.972,458.693C422.155,453.065 426.32,448.176 431.469,444.026C436.617,439.877 442.514,436.896 449.16,435.083C455.807,433.271 462.406,432.841 468.958,433.795C475.511,434.749 481.548,436.848 487.071,440.091C492.594,443.335 497.391,447.603 501.463,452.898C505.535,458.192 508.46,464.226 510.239,470.999C512.017,477.771 512.439,484.473 511.503,491.103C510.566,497.732 508.507,503.861 505.324,509.49C502.142,515.118 497.953,520.03 492.758,524.228C487.563,528.425 481.642,531.43 474.996,533.242C468.35,535.055 461.774,535.484 455.268,534.53C448.763,533.576 442.748,531.454 437.226,528.163C431.703,524.872 426.882,520.603 422.763,515.356C418.645,510.11 415.696,504.1 413.917,497.327ZM500.27,473.717C498.866,468.184 496.549,462.795 493.319,457.548C490.09,452.301 486.252,447.818 481.806,444.098C477.359,440.377 472.375,437.73 466.852,436.156C461.329,434.582 455.572,434.606 449.582,436.228C443.497,437.849 438.466,440.759 434.488,444.956C430.509,449.154 427.49,453.995 425.431,459.48C423.372,464.965 422.248,470.808 422.061,477.008C421.874,483.209 422.483,489.075 423.887,494.608C425.384,500.141 427.724,505.507 430.907,510.706C434.09,515.905 437.928,520.364 442.421,524.085C446.914,527.805 451.898,530.476 457.374,532.098C462.85,533.719 468.631,533.672 474.715,531.955C480.706,530.333 485.69,527.423 489.669,523.226C493.647,519.029 496.666,514.188 498.725,508.703C500.785,503.217 501.931,497.399 502.165,491.246C502.399,485.093 501.767,479.25 500.27,473.717Z" style="fill-rule:nonzero;"/>
            <path d="M591.396,446.244L590.132,446.244C588.073,443.955 586.06,442.094 584.095,440.664C582.129,439.233 579.882,438.136 577.355,437.372C574.828,436.609 571.879,436.085 568.509,435.798C565.139,435.512 561.067,435.369 556.293,435.369L556.293,522.225C556.293,524.514 556.41,526.398 556.644,527.877C556.878,529.355 557.183,530.476 557.557,531.239C557.931,532.002 558.306,532.527 558.68,532.813C559.055,533.099 559.336,533.242 559.523,533.242L559.523,534.53L543.095,534.53L543.095,533.242C543.282,533.242 543.563,533.099 543.937,532.813C544.312,532.527 544.663,532.002 544.99,531.239C545.318,530.476 545.622,529.355 545.903,527.877C546.184,526.398 546.324,524.514 546.324,522.225L546.324,435.369C541.55,435.369 537.478,435.512 534.109,435.798C530.739,436.085 527.814,436.609 525.333,437.372C522.852,438.136 520.629,439.233 518.663,440.664C516.698,442.094 514.685,443.955 512.626,446.244L511.362,446.244L511.362,434.081L591.396,434.081L591.396,446.244Z" style="fill-rule:nonzero;"/>
            <path d="M634.642,535.675C629.868,535.675 625.328,534.959 621.022,533.529C616.717,532.098 612.808,530.261 609.298,528.02C605.788,525.778 602.746,523.322 600.172,520.651C597.597,517.98 595.608,515.404 594.204,512.924L597.574,500.189L598.697,500.189C601.599,506.58 604.922,512.304 608.666,517.359C610.258,519.554 612.013,521.676 613.932,523.727C615.851,525.778 617.887,527.59 620.04,529.164C622.193,530.738 624.486,532.026 626.92,533.028C629.353,534.029 631.928,534.53 634.642,534.53C636.14,534.53 638.152,534.244 640.68,533.672C643.207,533.099 645.688,532.122 648.122,530.738C650.555,529.355 652.638,527.495 654.37,525.158C656.102,522.821 656.967,519.935 656.967,516.501C656.967,513.067 656.148,509.919 654.51,507.057C652.872,504.195 650.766,501.62 648.192,499.33C645.618,497.041 642.692,495.014 639.416,493.249C636.14,491.484 632.91,490.029 629.728,488.885C626.077,487.549 622.567,485.999 619.197,484.234C615.827,482.47 612.832,480.371 610.211,477.938C607.59,475.506 605.507,472.692 603.963,469.496C602.418,466.3 601.646,462.699 601.646,458.693C601.646,454.782 602.395,451.228 603.892,448.033C605.39,444.837 607.426,442.118 610,439.877C612.574,437.635 615.57,435.894 618.986,434.654C622.403,433.414 626.03,432.794 629.868,432.794C634.642,432.794 638.784,433.294 642.295,434.296C645.805,435.298 648.847,436.657 651.421,438.374C653.995,440.091 656.172,442.071 657.95,444.312C659.729,446.554 661.32,448.915 662.724,451.395L659.354,463.987L658.091,463.987C656.499,458.454 654.44,453.494 651.913,449.106C650.789,447.293 649.526,445.481 648.122,443.668C646.717,441.856 645.103,440.234 643.277,438.803C641.452,437.372 639.416,436.228 637.17,435.369C634.923,434.511 632.489,434.081 629.868,434.081C628.277,434.081 626.218,434.368 623.69,434.94C621.163,435.512 618.706,436.49 616.319,437.873C613.932,439.256 611.849,441.117 610.07,443.454C608.292,445.791 607.403,448.677 607.403,452.111C607.403,455.545 608.222,458.693 609.86,461.555C611.498,464.416 613.604,466.992 616.178,469.281C618.752,471.571 621.678,473.574 624.954,475.291C628.23,477.008 631.506,478.439 634.783,479.584C638.433,480.919 641.944,482.493 645.313,484.306C648.683,486.118 651.679,488.241 654.3,490.673C656.921,493.106 659.003,495.896 660.548,499.044C662.092,502.192 662.865,505.769 662.865,509.776C662.865,513.687 662.116,517.24 660.618,520.436C659.12,523.632 657.061,526.35 654.44,528.592C651.819,530.834 648.8,532.575 645.384,533.815C641.967,535.055 638.386,535.675 634.642,535.675Z" style="fill-rule:nonzero;"/>
        </g>
        <path d="M242.083,357.935C241.256,357.455 240.507,356.921 239.847,356.345C237.665,354.439 236.431,352.06 236.431,349.517C236.431,346.975 237.665,344.596 239.847,342.689C242.782,340.125 247.502,338.41 252.841,338.41C258.181,338.41 262.901,340.125 265.836,342.689C268.018,344.596 269.251,346.975 269.251,349.517C269.251,352.06 268.018,354.439 265.836,356.345C264.297,357.689 262.269,358.274 259.918,359.027C265.641,359.563 271.051,358.857 274.91,357.896L312.131,172.319C344.81,171.143 374.464,172.319 396.609,172.319C506.968,172.319 493.612,359.277 373.514,359.277C344.122,359.277 310.068,360.145 276.663,360.181L276.66,360.182C270.257,362.151 259.918,363.264 247.781,360.092C246.123,359.732 242.423,358.144 242.083,357.935ZM299.67,315.134C342.212,277.452 385.591,289.275 429.967,306.601L446.17,220.226C415.328,247.447 381.002,263.238 327.204,221.513L299.67,315.134ZM252.841,340.988C248.436,340.988 243.722,343.101 241.301,345.216C239.912,346.43 239.036,347.899 239.036,349.517C239.036,351.136 239.912,352.605 241.301,353.818C243.722,355.934 248.436,358.047 252.841,358.047C257.247,358.047 261.96,355.934 264.382,353.818C265.771,352.605 266.647,351.136 266.647,349.517C266.647,347.899 265.771,346.43 264.382,345.216C261.96,343.101 257.247,340.988 252.841,340.988Z"/>
        <path d="M252.841,343.721C255.796,343.721 258.401,344.631 260.025,345.957C261.351,347.04 262.071,348.408 262.071,349.852C262.071,351.296 261.351,352.664 260.025,353.747C258.401,355.073 255.796,355.982 252.841,355.982C249.887,355.982 247.282,355.073 245.658,353.747C244.332,352.664 243.612,351.296 243.612,349.852C243.612,348.408 244.332,347.04 245.658,345.957C247.282,344.631 249.887,343.721 252.841,343.721ZM252.841,346.863C250.754,346.863 248.887,347.425 247.739,348.362C247.216,348.79 246.846,349.282 246.846,349.852C246.846,350.422 247.216,350.914 247.739,351.341C248.887,352.279 250.754,352.84 252.841,352.84C254.929,352.84 256.796,352.279 257.944,351.341C258.466,350.914 258.837,350.422 258.837,349.852C258.837,349.282 258.466,348.79 257.944,348.362C256.796,347.425 254.929,346.863 252.841,346.863Z"/>
        <path d="M305.187,172.481C291.008,240.657 280.455,293.516 270.563,341.932C258.479,332.103 245.593,334.566 237.924,340.301C253.471,271.895 266.813,209.179 274.499,172.222C276.225,163.922 306.472,166.304 305.187,172.481Z"/>
    </g>
</svg>
