<?xml version="1.0" encoding="UTF-8" standalone="no"?>
<!DOCTYPE svg PUBLIC "-//W3C//DTD SVG 1.1//EN" "http://www.w3.org/Graphics/SVG/1.1/DTD/svg11.dtd">
<svg width="100%" height="100%" viewBox="0 0 720 720" version="1.1" xmlns="http://www.w3.org/2000/svg" xmlns:xlink="http://www.w3.org/1999/xlink" xml:space="preserve" xmlns:serif="http://www.serif.com/" style="fill-rule:evenodd;clip-rule:evenodd;stroke-linejoin:round;stroke-miterlimit:2;">
    <rect id="Daroots-Transparent" serif:id="Daroots Transparent" x="0" y="0" width="720" height="720" style="fill:none;"/>
    <clipPath id="_clip1">
        <rect x="0" y="0" width="720" height="720"/>
    </clipPath>
    <g clip-path="url(#_clip1)">
        <rect x="-41.103" y="-48.266" width="788.952" height="816.533" style="fill:none;"/>
        <g>
            <path d="M39.579,445.571L53.254,445.571L53.254,461.285C54.903,456.344 57.885,452.44 62.201,449.573C66.517,446.707 71.439,444.978 76.967,444.385C82.495,443.791 88.241,444.409 94.206,446.238C100.17,448.066 105.65,451.155 110.645,455.503C115.639,459.852 119.737,465.511 122.937,472.478C126.138,479.446 127.738,487.823 127.738,497.607C127.738,507.194 126.211,515.398 123.156,522.217C120.101,529.037 115.858,534.596 110.426,538.896C104.995,543.195 98.594,546.333 91.224,548.31C83.853,550.286 75.851,551.275 67.22,551.275C62.953,551.275 58.588,551.028 54.127,550.534C49.666,550.039 45.253,549.743 40.889,549.644L39.579,549.644L39.579,548.31C39.773,548.31 40.064,548.161 40.452,547.865C40.84,547.568 41.204,547.025 41.543,546.234C41.883,545.444 42.198,544.282 42.489,542.75C42.78,541.218 42.925,539.266 42.925,536.894L42.925,458.32C42.925,455.849 42.78,453.873 42.489,452.39C42.198,450.908 41.883,449.771 41.543,448.98C41.204,448.19 40.84,447.646 40.452,447.35C40.064,447.053 39.773,446.905 39.579,446.905L39.579,445.571ZM117.555,497.607C117.555,487.427 115.979,478.829 112.827,471.811C109.675,464.794 105.698,459.284 100.898,455.281C96.097,451.278 90.933,448.684 85.404,447.498C79.876,446.312 74.712,446.386 69.911,447.72C65.11,449.054 61.134,451.575 57.982,455.281C54.83,458.987 53.254,463.756 53.254,469.587L53.254,549.051C55.679,549.249 58.055,549.446 60.382,549.644C62.71,549.842 64.989,549.941 67.22,549.941C75.173,549.941 82.252,548.73 88.459,546.308C94.666,543.887 99.928,540.428 104.244,535.931C108.56,531.434 111.857,525.948 114.136,519.475C116.415,513.001 117.555,505.712 117.555,497.607Z" style="fill:rgb(243,233,220);fill-rule:nonzero;"/>
            <path d="M188.838,530.223C187.772,526.961 186.341,523.774 184.547,520.661C182.753,517.547 180.643,514.755 178.219,512.284C175.794,509.813 173.078,507.763 170.072,506.132C167.065,504.501 163.768,503.488 160.18,503.093C158.822,502.994 157.415,503.018 155.961,503.167C154.506,503.315 153.1,503.636 151.742,504.13C150.384,504.625 149.148,505.316 148.032,506.206C146.917,507.095 146.117,508.281 145.632,509.764L138.503,531.409C136.564,537.043 135.618,541.268 135.667,544.085C135.715,546.901 136.709,548.31 138.649,548.31L138.649,549.644L126.283,549.644L126.283,548.31C126.865,548.31 127.544,548.038 128.32,547.494C129.096,546.951 129.945,546.012 130.866,544.678C131.787,543.343 132.781,541.564 133.848,539.34C134.915,537.117 136.03,534.325 137.194,530.964L163.089,453.724L160.325,445.571L171.381,445.571L199.167,528.147C200.137,530.915 201.083,533.534 202.004,536.005C202.925,538.476 203.798,540.625 204.623,542.454C205.447,544.282 206.199,545.715 206.878,546.753C207.556,547.791 208.187,548.31 208.769,548.31L208.769,549.644L191.748,549.644L191.748,548.31C192.233,548.31 192.403,546.926 192.257,544.159C192.112,541.391 191.36,537.932 190.002,533.781L188.838,530.223ZM147.232,505.316C148.881,503.735 150.918,502.722 153.342,502.277C155.767,501.832 158.046,501.709 160.18,501.907C165.708,502.401 170.557,504.279 174.727,507.54C178.898,510.802 182.389,514.706 185.202,519.252L163.816,455.8L147.232,505.316Z" style="fill:rgb(243,233,220);fill-rule:nonzero;"/>
            <path d="M282.671,528.74C284.223,531.508 285.702,534.077 287.108,536.45C288.514,538.822 289.799,540.897 290.963,542.676C292.127,544.455 293.121,545.839 293.945,546.827C294.77,547.816 295.473,548.31 296.055,548.31L296.055,549.644L279.034,549.644L279.034,548.31C279.616,548.31 279.374,546.778 278.307,543.714C277.24,540.65 275.349,536.746 272.633,532.002L250.521,493.011L234.082,493.011L234.082,536.894C234.082,539.266 234.203,541.218 234.445,542.75C234.688,544.282 235.003,545.444 235.391,546.234C235.779,547.025 236.167,547.568 236.555,547.865C236.943,548.161 237.234,548.31 237.428,548.31L237.428,549.644L220.407,549.644L220.407,548.31C220.601,548.31 220.892,548.161 221.28,547.865C221.668,547.568 222.031,547.025 222.371,546.234C222.71,545.444 223.026,544.282 223.316,542.75C223.607,541.218 223.753,539.266 223.753,536.894L223.753,458.32C223.753,455.849 223.607,453.873 223.316,452.39C223.026,450.908 222.71,449.771 222.371,448.98C222.031,448.19 221.668,447.646 221.28,447.35C220.892,447.053 220.601,446.905 220.407,446.905L220.407,445.571L221.716,445.571C226.081,445.472 230.59,445.175 235.246,444.681C239.901,444.187 244.362,443.94 248.629,443.94C256,443.94 262.207,444.557 267.25,445.793C272.294,447.028 276.367,448.733 279.471,450.908C282.574,453.082 284.805,455.676 286.162,458.691C287.52,461.705 288.199,464.992 288.199,468.55C288.199,471.515 287.738,474.282 286.817,476.852C285.896,479.422 284.392,481.744 282.307,483.82C280.222,485.895 277.507,487.65 274.161,489.083C270.815,490.516 266.766,491.578 262.013,492.27L282.671,528.74ZM234.082,446.015L234.082,491.825L248.629,491.825C251.83,491.825 255.152,491.479 258.595,490.788C262.038,490.096 265.19,488.86 268.051,487.081C270.912,485.302 273.288,482.906 275.179,479.891C277.07,476.877 278.016,473.096 278.016,468.55C278.016,464.003 277.07,460.223 275.179,457.208C273.288,454.194 270.912,451.797 268.051,450.018C265.19,448.239 262.038,446.979 258.595,446.238C255.152,445.496 251.83,445.126 248.629,445.126C246.399,445.126 244.047,445.225 241.574,445.422C239.101,445.62 236.603,445.818 234.082,446.015Z" style="fill:rgb(243,233,220);fill-rule:nonzero;"/>
            <path d="M297.073,511.098C295.23,504.081 294.818,497.113 295.837,490.195C296.855,483.276 299.013,476.901 302.31,471.07C305.608,465.239 309.924,460.173 315.258,455.874C320.592,451.575 326.702,448.486 333.588,446.608C340.474,444.73 347.311,444.286 354.1,445.274C360.889,446.262 367.145,448.437 372.867,451.797C378.589,455.158 383.559,459.58 387.778,465.066C391.997,470.551 395.028,476.802 396.87,483.82C398.713,490.837 399.149,497.78 398.18,504.649C397.21,511.518 395.076,517.868 391.779,523.7C388.481,529.531 384.141,534.621 378.758,538.97C373.376,543.319 367.242,546.432 360.356,548.31C353.47,550.188 346.657,550.632 339.916,549.644C333.176,548.656 326.944,546.457 321.222,543.047C315.5,539.637 310.506,535.214 306.238,529.778C301.971,524.342 298.916,518.116 297.073,511.098ZM386.541,486.637C385.087,480.904 382.686,475.32 379.34,469.884C375.994,464.448 372.018,459.803 367.411,455.948C362.804,452.094 357.64,449.351 351.918,447.72C346.196,446.089 340.231,446.114 334.024,447.794C327.72,449.475 322.507,452.489 318.386,456.838C314.264,461.186 311.136,466.202 309.002,471.885C306.869,477.568 305.705,483.622 305.511,490.046C305.317,496.471 305.947,502.549 307.402,508.281C308.954,514.014 311.378,519.573 314.676,524.96C317.973,530.346 321.95,534.967 326.605,538.822C331.26,542.676 336.425,545.444 342.098,547.124C347.772,548.804 353.761,548.754 360.065,546.975C366.272,545.295 371.436,542.281 375.558,537.932C379.68,533.583 382.808,528.567 384.941,522.884C387.075,517.201 388.263,511.172 388.505,504.798C388.748,498.423 388.093,492.369 386.541,486.637Z" style="fill:rgb(243,233,220);fill-rule:nonzero;"/>
            <path d="M409.236,511.098C407.393,504.081 406.981,497.113 407.999,490.195C409.018,483.276 411.175,476.901 414.473,471.07C417.77,465.239 422.086,460.173 427.42,455.874C432.755,451.575 438.865,448.486 445.75,446.608C452.636,444.73 459.474,444.286 466.263,445.274C473.052,446.262 479.307,448.437 485.029,451.797C490.751,455.158 495.722,459.58 499.941,465.066C504.159,470.551 507.19,476.802 509.033,483.82C510.876,490.837 511.312,497.78 510.342,504.649C509.372,511.518 507.239,517.868 503.941,523.7C500.644,529.531 496.304,534.621 490.921,538.97C485.538,543.319 479.404,546.432 472.518,548.31C465.632,550.188 458.819,550.632 452.079,549.644C445.338,548.656 439.107,546.457 433.385,543.047C427.663,539.637 422.668,535.214 418.401,529.778C414.134,524.342 411.079,518.116 409.236,511.098ZM498.704,486.637C497.249,480.904 494.849,475.32 491.503,469.884C488.157,464.448 484.181,459.803 479.574,455.948C474.967,452.094 469.803,449.351 464.081,447.72C458.358,446.089 452.394,446.114 446.187,447.794C439.883,449.475 434.67,452.489 430.548,456.838C426.426,461.186 423.299,466.202 421.165,471.885C419.031,477.568 417.867,483.622 417.673,490.046C417.479,496.471 418.11,502.549 419.565,508.281C421.116,514.014 423.541,519.573 426.838,524.96C430.136,530.346 434.112,534.967 438.768,538.822C443.423,542.676 448.587,545.444 454.261,547.124C459.934,548.804 465.923,548.754 472.227,546.975C478.434,545.295 483.599,542.281 487.721,537.932C491.842,533.583 494.97,528.567 497.104,522.884C499.237,517.201 500.426,511.172 500.668,504.798C500.91,498.423 500.256,492.369 498.704,486.637Z" style="fill:rgb(243,233,220);fill-rule:nonzero;"/>
            <path d="M593.118,458.172L591.809,458.172C589.676,455.8 587.59,453.873 585.554,452.39C583.517,450.908 581.189,449.771 578.571,448.98C575.952,448.19 572.897,447.646 569.406,447.35C565.914,447.053 561.695,446.905 556.749,446.905L556.749,536.894C556.749,539.266 556.871,541.218 557.113,542.75C557.355,544.282 557.671,545.444 558.059,546.234C558.447,547.025 558.834,547.568 559.222,547.865C559.61,548.161 559.901,548.31 560.095,548.31L560.095,549.644L543.074,549.644L543.074,548.31C543.268,548.31 543.559,548.161 543.947,547.865C544.335,547.568 544.699,547.025 545.038,546.234C545.378,545.444 545.693,544.282 545.984,542.75C546.275,541.218 546.42,539.266 546.42,536.894L546.42,446.905C541.474,446.905 537.255,447.053 533.764,447.35C530.272,447.646 527.242,448.19 524.672,448.98C522.102,449.771 519.798,450.908 517.761,452.39C515.725,453.873 513.64,455.8 511.506,458.172L510.197,458.172L510.197,445.571L593.118,445.571L593.118,458.172Z" style="fill:rgb(243,233,220);fill-rule:nonzero;"/>
            <path d="M637.925,550.83C632.979,550.83 628.275,550.089 623.814,548.606C619.353,547.124 615.304,545.221 611.667,542.899C608.03,540.576 604.878,538.031 602.211,535.263C599.544,532.496 597.483,529.828 596.028,527.258L599.519,514.063L600.683,514.063C603.69,520.685 607.133,526.615 611.012,531.854C612.661,534.127 614.479,536.326 616.467,538.451C618.456,540.576 620.565,542.454 622.796,544.085C625.026,545.715 627.403,547.05 629.924,548.087C632.446,549.125 635.113,549.644 637.925,549.644C639.477,549.644 641.562,549.347 644.181,548.754C646.799,548.161 649.369,547.148 651.891,545.715C654.413,544.282 656.571,542.355 658.365,539.933C660.159,537.512 661.056,534.522 661.056,530.964C661.056,527.406 660.208,524.145 658.51,521.179C656.813,518.214 654.631,515.546 651.964,513.174C649.297,510.802 646.266,508.702 642.872,506.873C639.477,505.045 636.131,503.537 632.834,502.351C629.051,500.968 625.414,499.362 621.923,497.533C618.431,495.705 615.328,493.53 612.612,491.01C609.897,488.49 607.739,485.574 606.139,482.263C604.538,478.952 603.738,475.221 603.738,471.07C603.738,467.018 604.514,463.336 606.066,460.025C607.618,456.714 609.727,453.897 612.394,451.575C615.061,449.252 618.165,447.448 621.705,446.164C625.245,444.879 629.003,444.236 632.979,444.236C637.925,444.236 642.217,444.755 645.854,445.793C649.491,446.831 652.643,448.239 655.31,450.018C657.977,451.797 660.232,453.848 662.074,456.171C663.917,458.493 665.566,460.939 667.021,463.509L663.529,476.555L662.22,476.555C660.571,470.823 658.438,465.683 655.819,461.137C654.655,459.259 653.346,457.381 651.891,455.503C650.436,453.626 648.763,451.945 646.872,450.463C644.981,448.98 642.872,447.794 640.544,446.905C638.216,446.015 635.695,445.571 632.979,445.571C631.33,445.571 629.197,445.867 626.578,446.46C623.96,447.053 621.414,448.066 618.941,449.499C616.467,450.932 614.31,452.86 612.467,455.281C610.624,457.703 609.703,460.692 609.703,464.25C609.703,467.808 610.551,471.07 612.249,474.035C613.946,477 616.128,479.669 618.795,482.041C621.462,484.413 624.493,486.488 627.887,488.267C631.282,490.046 634.676,491.529 638.071,492.715C641.853,494.099 645.49,495.729 648.982,497.607C652.473,499.485 655.577,501.684 658.292,504.205C661.008,506.725 663.166,509.616 664.766,512.877C666.366,516.139 667.166,519.845 667.166,523.996C667.166,528.049 666.39,531.73 664.839,535.041C663.287,538.352 661.153,541.169 658.438,543.492C655.722,545.814 652.594,547.618 649.054,548.903C645.514,550.188 641.805,550.83 637.925,550.83Z" style="fill:rgb(243,233,220);fill-rule:nonzero;"/>
        </g>
        <path d="M231.201,366.677C230.344,366.179 229.567,365.626 228.884,365.029C226.623,363.054 225.345,360.589 225.345,357.955C225.345,355.321 226.623,352.856 228.884,350.881C231.925,348.224 236.815,346.446 242.347,346.446C247.879,346.446 252.77,348.224 255.81,350.881C258.071,352.856 259.35,355.321 259.35,357.955C259.35,360.589 258.071,363.054 255.81,365.029C254.217,366.422 252.115,367.028 249.679,367.808C255.609,368.363 261.214,367.631 265.212,366.636L303.776,174.362C337.634,173.145 368.358,174.362 391.302,174.362C505.644,174.362 491.806,368.067 367.375,368.067C336.922,368.067 301.638,368.966 267.029,369.003L267.025,369.004C260.391,371.044 249.679,372.197 237.104,368.911C235.386,368.538 231.553,366.893 231.201,366.677ZM290.866,322.331C334.943,283.289 379.887,295.539 425.864,313.49L442.653,223.999C410.698,252.202 375.133,268.562 319.394,225.332L290.866,322.331ZM242.347,349.117C237.783,349.117 232.899,351.307 230.39,353.499C228.951,354.756 228.044,356.278 228.044,357.955C228.044,359.632 228.951,361.154 230.39,362.411C232.899,364.603 237.783,366.793 242.347,366.793C246.912,366.793 251.795,364.603 254.304,362.411C255.744,361.154 256.651,359.632 256.651,357.955C256.651,356.278 255.744,354.756 254.304,353.499C251.795,351.307 246.912,349.117 242.347,349.117Z" style="fill:rgb(243,233,220);"/>
        <path d="M242.347,351.95C245.408,351.95 248.108,352.892 249.79,354.266C251.164,355.388 251.91,356.805 251.91,358.302C251.91,359.798 251.164,361.215 249.79,362.337C248.108,363.711 245.408,364.653 242.347,364.653C239.286,364.653 236.587,363.711 234.904,362.337C233.531,361.215 232.785,359.798 232.785,358.302C232.785,356.805 233.531,355.388 234.904,354.266C236.587,352.892 239.286,351.95 242.347,351.95ZM242.347,355.205C240.184,355.205 238.25,355.787 237.061,356.758C236.519,357.201 236.135,357.711 236.135,358.302C236.135,358.892 236.519,359.402 237.061,359.845C238.25,360.816 240.184,361.398 242.347,361.398C244.51,361.398 246.445,360.816 247.634,359.845C248.175,359.402 248.559,358.892 248.559,358.302C248.559,357.711 248.175,357.201 247.634,356.758C246.445,355.787 244.51,355.205 242.347,355.205Z" style="fill:rgb(243,233,220);"/>
        <path d="M296.582,174.531C281.891,245.166 270.958,299.933 260.708,350.096C248.189,339.912 234.837,342.464 226.892,348.406C242.999,277.532 256.823,212.552 264.786,174.262C266.575,165.662 297.913,168.13 296.582,174.531Z" style="fill:rgb(243,233,220);"/>
    </g>
</svg>
